<svg xmlns="http://www.w3.org/2000/svg" viewBox="0 0 192 192">
  <defs><linearGradient id="g" x1="0" y1="0" x2="1" y2="1"><stop offset="0" stop-color="#8B7BFF"/><stop offset="0.55" stop-color="#4CC9F0"/><stop offset="1" stop-color="#2EE6D6"/></linearGradient><radialGradient id="b" cx="0.3" cy="0.2" r="1"><stop offset="0" stop-color="#1A1F4A"/><stop offset="1" stop-color="#02030A"/></radialGradient></defs>
  <rect width="192" height="192" rx="44" fill="url(#b)"/>
  <g fill="url(#g)">
    <rect x="52" y="70" width="34" height="80" rx="3"/>
    <rect x="106" y="46" width="34" height="104" rx="3"/>
    <rect x="60" y="82" width="8" height="8"/>
    <rect x="74" y="82" width="8" height="8"/>
    <rect x="60" y="98" width="8" height="8"/>
    <rect x="74" y="98" width="8" height="8"/>
    <rect x="60" y="114" width="8" height="8"/>
    <rect x="74" y="114" width="8" height="8"/>
    <rect x="114" y="58" width="8" height="8"/>
    <rect x="128" y="58" width="8" height="8"/>
    <rect x="114" y="74" width="8" height="8"/>
    <rect x="128" y="74" width="8" height="8"/>
    <rect x="114" y="90" width="8" height="8"/>
    <rect x="128" y="90" width="8" height="8"/>
    <rect x="114" y="106" width="8" height="8"/>
    <rect x="128" y="106" width="8" height="8"/>
  </g>
</svg>
